<svg viewBox="0 0 16 16" xmlns="http://www.w3.org/2000/svg" xmlns:bx="https://adiop.com">
  <path style="fill: rgb(255, 255, 255);" d="M 10.469 5.002 C 10.745 5.002 10.969 5.226 10.969 5.502 L 10.969 6.502 C 10.969 6.778 10.745 7.002 10.469 7.002 L 3.953 7.005 C 3.401 7.005 2.953 7.465 2.953 8.017 L 2.953 11.988 C 2.953 12.54 3.401 12.988 3.953 12.988 L 11.982 12.988 C 12.534 12.988 12.982 12.54 12.982 11.988 L 12.982 3.988 C 12.982 3.436 12.534 2.988 11.982 2.988 L 7.953 2.988 C 7.401 2.988 6.953 3.436 6.953 3.988 C 6.953 4.54 7.401 5.002 7.953 5.002 L 10.469 5.002 Z M 2.953 3.988 C 2.953 4.54 3.401 4.988 3.953 4.988 C 4.505 4.988 4.953 4.54 4.953 3.988 C 4.953 3.436 4.505 2.988 3.953 2.988 C 3.401 2.988 2.953 3.436 2.953 3.988 Z"></path>
  <path d="M 3.1 1 L 12.9 1 C 14.059 1 15 1.941 15 3.1 L 15 12.9 C 15 14.059 14.059 15 12.9 15 L 3.1 15 C 1.941 15 1 14.059 1 12.9 L 1 3.1 C 1 1.941 1.941 1 3.1 1 Z M 10.503 5.014 C 10.776 5.014 11.001 5.239 11.001 5.513 L 11.001 6.513 C 11.001 6.792 10.776 7.015 10.503 7.015 L 3.986 7.016 C 3.434 7.016 2.985 7.478 2.985 8.029 L 2.985 12.001 C 2.985 12.553 3.434 13 3.986 13 L 12.016 13 C 12.566 13 13.015 12.553 13.015 12.001 L 13.015 3.999 C 13.015 3.448 12.566 3 12.016 3 L 7.985 3 C 7.434 3 6.987 3.448 6.987 3.999 C 6.987 4.553 7.434 5.014 7.985 5.014 L 10.503 5.014 Z M 2.985 3.999 C 2.985 4.553 3.434 5.001 3.986 5.001 C 4.538 5.001 4.986 4.553 4.986 3.999 C 4.986 3.448 4.538 3 3.986 3 C 3.434 3 2.985 3.448 2.985 3.999 Z M 5.986 9.002 C 6.538 9.002 6.987 9.447 6.987 10 C 6.987 10.551 6.538 10.998 5.986 10.998 C 5.435 10.998 4.986 10.551 4.986 10 C 4.986 9.447 5.435 9.002 5.986 9.002 Z" ></path>
</svg>